<svg id="Layer_1" data-name="Layer 1" xmlns="http://www.w3.org/2000/svg" viewBox="0 0 350 120"><defs><style>.cls-1{fill:#ff6c37;}.cls-2{fill:#fff;}</style></defs><path class="cls-1" d="M198.17,40.4a33.64,33.64,0,1,0-6.06,47.18h0a33.65,33.65,0,0,0,6-47.18Z"/><path class="cls-2" d="M182.9,48.76,168.71,63.05l-4-4.12c14-14,15.36-12.69,18.2-10.17Z"/><path class="cls-1" d="M168.71,63.44a.47.47,0,0,1-.33-.14l-4-4a.5.5,0,0,1,0-.7C178.1,44.81,180,45.45,183.23,48.39a.48.48,0,0,1,.17.37.39.39,0,0,1-.14.36L169.08,63.31a.55.55,0,0,1-.37.14Zm-3.31-4.51,3.31,3.31,13.46-13.45a3,3,0,0,0-4-.68C175.75,49.21,171.82,52.54,165.4,58.93Z"/><path class="cls-2" d="M172.78,67l-3.87-4,14.18-14c3.81,3.73-1.85,10-10.31,18Z"/><path class="cls-1" d="M172.78,67.51a.61.61,0,0,1-.34-.14l-3.95-3.87a.58.58,0,0,1,0-.45.55.55,0,0,1,0-.36l14.18-14.18a.52.52,0,0,1,.73,0,4.33,4.33,0,0,1,1.4,3.33c0,3.79-4.32,8.55-11.66,15.5a.58.58,0,0,1-.36.17Zm-3.14-4.46,3.16,3.17c5.61-5.3,11-10.76,11-14.46a3.18,3.18,0,0,0-.73-2.16Z"/><path class="cls-2" d="M164.82,59l2.8,2.8a.16.16,0,0,1,0,.24h0l-5.92,1.26a.54.54,0,0,1-.66-.43.56.56,0,0,1,.16-.52L164.65,59a.27.27,0,0,1,.17.06Z"/><path class="cls-1" d="M161.56,63.89a1,1,0,0,1-.72-1.79l3.42-3.45a.66.66,0,0,1,.89,0L168,61.46a.6.6,0,0,1,.16.61.63.63,0,0,1-.47.45l-5.92,1.26Zm3.14-4.26-3.16,3.17,5.24-1.12Z"/><path class="cls-2" d="M190.44,40.88a5.44,5.44,0,1,0-1,8.58l-3.82-3.81Z"/><path class="cls-1" d="M186.65,50.75a5.93,5.93,0,1,1,4.25-10.12.46.46,0,0,1,.17.36.48.48,0,0,1-.17.37l-4.54,4.29L189.81,49a.47.47,0,0,1,.14.42.51.51,0,0,1-.22.36,6.17,6.17,0,0,1-3.09.93Zm0-10.88a4.93,4.93,0,1,0,2,9.45L185.31,46a.44.44,0,0,1-.07-.63.23.23,0,0,1,.07-.07l4.37-4.4a5,5,0,0,0-3-1Z"/><path class="cls-2" d="M190.52,41l-4.79,4.76,3.81,3.81a5.79,5.79,0,0,0,1.06-.78,5.6,5.6,0,0,0-.08-7.79Z"/><path class="cls-1" d="M189.45,50a.39.39,0,0,1-.33-.14L185.31,46a.44.44,0,0,1-.07-.63.23.23,0,0,1,.07-.07l4.76-4.68a.5.5,0,0,1,.7-.14.38.38,0,0,1,.14.14A5.89,5.89,0,0,1,191,49l-.09.09a5,5,0,0,1-1.12.89.41.41,0,0,1-.34,0Zm-3.08-4.31,3.17,3.16a5.9,5.9,0,0,0,.62-.5,5,5,0,0,0,1.45-3.5,4.77,4.77,0,0,0-1.2-3.2Z"/><path class="cls-2" d="M183.48,49.35a2,2,0,0,0-2.8,0L168,62l2.11,2.13,13.42-11.78a2.06,2.06,0,0,0,.06-2.93.2.2,0,0,0-.09-.09Z"/><path class="cls-1" d="M170,64.65a.47.47,0,0,1-.33-.14l-2.13-2.13a.5.5,0,0,1,0-.7L180.2,49a2.59,2.59,0,0,1,4.41,1.9,2.66,2.66,0,0,1-.87,1.85L170.31,64.57a.46.46,0,0,1-.34.08ZM168.49,62l1.4,1.42L183.06,52a1.56,1.56,0,0,0,.54-1.12,1.51,1.51,0,0,0-.48-1.15,1.56,1.56,0,0,0-2.21,0Z"/><path class="cls-2" d="M158.15,76.45a.27.27,0,0,0,0,.34l.56,2.44a.74.74,0,0,1-.35.73.68.68,0,0,1-.8-.08l-3.84-3.7,12-12.06h4.14l2.81,2.8a63.94,63.94,0,0,1-14.49,9.53Z"/><path class="cls-1" d="M157.89,80.57a1.16,1.16,0,0,1-.84-.36l-3.67-3.67a.47.47,0,0,1-.07-.64l.07-.07,12.05-12.08a.51.51,0,0,1,.26-.14h4.17a.65.65,0,0,1,.34,0l2.8,2.81a.44.44,0,0,1,.14.39.45.45,0,0,1-.17.36l-.22.2a68.48,68.48,0,0,1-14.38,9.22l.53,2.27a1.21,1.21,0,0,1-.9,1.46,1,1,0,0,1-.25,0Zm-3.42-4.4,3.31,3.34a.18.18,0,0,0,.22,0,.15.15,0,0,0,0-.2l-.56-2.44a.79.79,0,0,1,.42-.9,69.12,69.12,0,0,0,14-9l-2.3-2.3h-3.75Z"/><path class="cls-2" d="M150.83,79.06l2.8-2.81L158,80.57l-6.87-.47a.56.56,0,0,1-.51-.61.54.54,0,0,1,.26-.43Z"/><path class="cls-1" d="M158,81l-6.84-.47a1.09,1.09,0,0,1-.89-.69,1.06,1.06,0,0,1,.22-1.11l2.8-2.8a.51.51,0,0,1,.71,0l4.28,4.29a.45.45,0,0,1,0,.56A.52.52,0,0,1,158,81Zm-6.84-1.57,5.61.37-3.08-2.89Z"/><path class="cls-2" d="M170.23,64.46l-5.67.87,3.28-3.26Z"/><path class="cls-1" d="M164.56,65.86a.5.5,0,0,1-.45-.28.48.48,0,0,1,0-.56l3.26-3.28a.51.51,0,0,1,.72,0l2.39,2.38a.45.45,0,0,1,0,.5.51.51,0,0,1-.39.37l-5.61.87Zm3.28-3.06L166,64.62l3.14-.47Z"/><path class="cls-2" d="M170.23,64.45l-4,.51a.5.5,0,0,1-.6-.38.49.49,0,0,1,.13-.46l2-2.05Z"/><path class="cls-1" d="M166.16,65.49a1,1,0,0,1-.9-.53,1,1,0,0,1,.17-1.21l2-2a.52.52,0,0,1,.73,0l2.38,2.38a.5.5,0,0,1,0,.71.52.52,0,0,1-.33.16l-3.92.5Zm0-1,3-.36-1.31-1.32-1.69,1.68Zm24.39-20.26A.43.43,0,0,0,190,44a.39.39,0,0,0-.16.53,1.24,1.24,0,0,1-.14,1.27.36.36,0,0,0-.11.26.4.4,0,0,0,.11.27.28.28,0,0,0,.22,0,.38.38,0,0,0,.37-.12,1.94,1.94,0,0,0,.25-2Z"/></svg>