<svg id="Layer_1" data-name="Layer 1" xmlns="http://www.w3.org/2000/svg" viewBox="0 0 350 120"><defs><style>.cls-1{fill:#003b70;}.cls-2{fill:#d9261c;fill-rule:evenodd;}</style></defs><path class="cls-1" d="M85.8,79.09l-.17.17a12.93,12.93,0,0,1-9.21,4.28c-6.84,0-11.81-5.13-11.81-12.21s5-12.22,11.81-12.22a13,13,0,0,1,9.21,4.3l.17.17,4.4-5.32-.11-.14a16.79,16.79,0,0,0-13.45-6.43A20.4,20.4,0,0,0,62.7,56.8c-3.88,3.56-5.93,8.58-5.93,14.53s2,11,5.93,14.54A20.36,20.36,0,0,0,76.64,91a16.79,16.79,0,0,0,13.45-6.43l.11-.13Zm8.85,11.17h7.78v-38H94.65ZM132.88,82a11.18,11.18,0,0,1-5.74,1.9c-2.51,0-3.64-1.32-3.64-4.28V59.49h7.91V52.34H123.5V40.53l-7.63,4.08v7.73H109.3v7.15h6.57V80.91c0,5.84,3.46,9.82,8.62,9.93a12.33,12.33,0,0,0,6.9-1.74l.08-.06,1.87-7.32Zm6.44,8.26h7.78v-38h-7.78ZM271.1,37.86V74.07l2.42-3.77S284.4,54.55,285.8,52.54h4.85c-1,1.39-9.59,13.17-9.59,13.17l11.79,24.55h-4.76c-.26-.54-9.84-20.82-9.84-20.82l-7.15,10v10.8h-4.44V40.4l4.44-2.54ZM234.65,57a11.77,11.77,0,0,1,10.07-5.31c8.37,0,12.8,5.34,12.8,15.44V90.26h-4.45V68.12c0-8.59-3-12.58-9.44-12.58-6.19,0-9.88,4.71-9.88,12.58V90.26h-4.44V52.54h4.44v5.85Zm-27.27-5.31c8.61,0,12.79,3.94,12.79,12V90.26h-4.44v-5.5l-.86.95a14.91,14.91,0,0,1-11.48,5.36c-3.5,0-11.63-1.15-11.63-11.89,0-8.78,7.24-11.89,14-11.89A19.45,19.45,0,0,1,215,69.44l.73.41V64.43c0-6-2.93-9-8.72-9a19.93,19.93,0,0,0-10.1,2.76l-1.61-3.58a26.31,26.31,0,0,1,12.08-2.84ZM196.11,78.81c0,5.64,2.92,8.74,8.23,8.74a13.71,13.71,0,0,0,11.31-6l.08-.13V73.14l-.24-.15c-2.84-1.61-5.74-2.26-10-2.26C199.62,70.73,196.11,73.75,196.11,78.81ZM161.84,37.86V58l.86-.94c3.27-3.61,6.89-5.37,11.05-5.37,8.32,0,13.1,6.94,13.1,19,0,12.33-5.43,20.3-13.83,20.3-4.09,0-7.37-1.59-10.31-5l-.87-1v5.18h-4.43V40.4c.38-.23,3.39-1.95,4.43-2.54ZM162,61.32l-.11.14V81.09l.08.12a12.81,12.81,0,0,0,10.68,6.06c6.56,0,9.88-5.53,9.88-16.42,0-9.73-3.68-15.31-10.1-15.31-3.89,0-7.4,2-10.43,5.78"/><path class="cls-2" d="M151.76,45.57a37.81,37.81,0,0,0-61.91,0l-.37.52h9l.1-.11a30.56,30.56,0,0,1,44.52,0l.1.11h9Z"/></svg>