<svg id="Layer_1" data-name="Layer 1" xmlns="http://www.w3.org/2000/svg" viewBox="0 0 350 120"><defs><style>.cls-1{fill:#737373;}.cls-2{fill:#f25022;}.cls-3{fill:#7fba00;}.cls-4{fill:#00a4ef;}.cls-5{fill:#ffb900;}</style></defs><path class="cls-1" d="M131.11,64.8l-1.79,5.07h-.15a36.69,36.69,0,0,0-1.74-5l-9.59-24.1h-9.39V79.21h6.21V55.51c0-1.49,0-3.18,0-5.27,0-1-.15-1.83-.2-2.43h.15a23.31,23.31,0,0,0,.9,3.28l11.52,28h4.38l11.42-28.27a30.42,30.42,0,0,0,.75-3h.15c-.15,2.83-.25,5.36-.3,6.9V79.06H150V40.7h-9.05Zm25.14-13.26h6.45V79.06h-6.45Zm3.27-11.63A3.9,3.9,0,0,0,156.79,41a3.55,3.55,0,0,0-1.14,2.69,3.52,3.52,0,0,0,1.14,2.63,3.86,3.86,0,0,0,2.73,1,4,4,0,0,0,2.74-1,3.52,3.52,0,0,0,1.14-2.63A3.71,3.71,0,0,0,162.26,41a3.66,3.66,0,0,0-2.74-1.09m26.09,11.38a17.94,17.94,0,0,0-3.63-.4,15.62,15.62,0,0,0-7.85,1.94A13.07,13.07,0,0,0,169,58.14a16.94,16.94,0,0,0-1.78,8,14.81,14.81,0,0,0,1.73,7.11,12,12,0,0,0,4.87,4.91,14.27,14.27,0,0,0,7.11,1.74,15.65,15.65,0,0,0,7.8-1.83l.05,0V72l-.25.2a11,11,0,0,1-3.13,1.64,9.53,9.53,0,0,1-3.08.6,7.62,7.62,0,0,1-6.06-2.39,9.15,9.15,0,0,1-2.24-6.5,9.39,9.39,0,0,1,2.29-6.71,8,8,0,0,1,6.06-2.49,10.58,10.58,0,0,1,6.16,2.09l.25.2V52.33l-.05,0a15.1,15.1,0,0,0-3.08-1m21.31-.2a6.77,6.77,0,0,0-4.37,1.54,9.3,9.3,0,0,0-2.49,3.72h0V51.54h-6.46V79.06H200V65a9.48,9.48,0,0,1,1.58-5.81A5,5,0,0,1,205.78,57a16.14,16.14,0,0,1,1.94.25,5.47,5.47,0,0,1,1.54.64l.24.2V51.58l-.14,0a4.92,4.92,0,0,0-2.44-.45m17.59-.15c-4.52,0-8.15,1.34-10.68,4S210,61.17,210,65.74c0,4.28,1.29,7.75,3.78,10.29a13.68,13.68,0,0,0,10.08,3.77c4.42,0,7.95-1.34,10.48-4s3.83-6.26,3.83-10.68-1.19-7.85-3.63-10.39-5.76-3.77-10-3.77m5.16,21.16a6.51,6.51,0,0,1-5.41,2.29A6.77,6.77,0,0,1,218.7,72c-1.35-1.54-2-3.77-2-6.6a10.38,10.38,0,0,1,2-6.76,6.82,6.82,0,0,1,5.51-2.39,6.62,6.62,0,0,1,5.37,2.29,10.21,10.21,0,0,1,2,6.71c-.1,3-.64,5.31-1.89,6.85M252.58,63a15.26,15.26,0,0,1-3.93-2,2.83,2.83,0,0,1-.74-2.08,2.32,2.32,0,0,1,1-2,4.77,4.77,0,0,1,2.83-.74,12.72,12.72,0,0,1,3.33.49A8.7,8.7,0,0,1,258,57.94l.25.2V52.08l-.15,0a17.84,17.84,0,0,0-2.93-.84,19.72,19.72,0,0,0-3.18-.3,11.51,11.51,0,0,0-7.6,2.38,7.34,7.34,0,0,0-2.93,6.07,7.8,7.8,0,0,0,.65,3.37,7.48,7.48,0,0,0,2,2.59,17.49,17.49,0,0,0,4,2.23c1.49.65,2.63,1.15,3.33,1.54a7.26,7.26,0,0,1,1.49,1.19,2.93,2.93,0,0,1,.39,1.55c0,1.83-1.39,2.73-4.22,2.73a11.16,11.16,0,0,1-3.58-.65,13.69,13.69,0,0,1-3.62-1.84l-.25-.2v6.31l.15,0a18.89,18.89,0,0,0,3.48,1.1,21.9,21.9,0,0,0,3.72.44c3.33,0,6.06-.74,8-2.38a7.6,7.6,0,0,0,3-6.26,7,7,0,0,0-1.59-4.72A20.36,20.36,0,0,0,252.58,63m24.44-12c-4.52,0-8.15,1.34-10.68,4s-3.83,6.26-3.83,10.83A14.19,14.19,0,0,0,266.29,76c2.48,2.48,5.86,3.77,10.09,3.77,4.42,0,7.94-1.34,10.48-4s3.82-6.26,3.82-10.68-1.19-7.85-3.62-10.39-5.77-3.77-10-3.77m5.12,21.16a6.51,6.51,0,0,1-5.42,2.29A6.72,6.72,0,0,1,271.16,72c-1.34-1.54-2-3.77-2-6.6a10.43,10.43,0,0,1,2-6.76,6.83,6.83,0,0,1,5.51-2.39A6.68,6.68,0,0,1,282,58.54a10.21,10.21,0,0,1,2,6.71c0,3-.65,5.31-1.89,6.85m43.07-15.25V51.54H318.7V43.39l-.19,0-6.17,1.84-.14,0v6.22h-9.74V48.06a5.5,5.5,0,0,1,1.09-3.63,3.88,3.88,0,0,1,3-1.19,7.32,7.32,0,0,1,2.88.64l.25.15V38.42l-.15-.05a11.43,11.43,0,0,0-3.62-.5,11.58,11.58,0,0,0-5.17,1.2,8.61,8.61,0,0,0-3.53,3.52A10.21,10.21,0,0,0,296,47.71v3.83h-4.52V56.8H296V79.06h6.51V56.85h9.74V71c0,5.81,2.73,8.74,8.19,8.74a17,17,0,0,0,2.74-.29,8.76,8.76,0,0,0,2-.65l0,0V73.44l-.25.2a4.07,4.07,0,0,1-1.34.6,4.47,4.47,0,0,1-1.29.2,3.42,3.42,0,0,1-2.83-1,5.32,5.32,0,0,1-.9-3.52v-13Z"/><path class="cls-2" d="M25.19,27.89H55.64V58.34H25.19Z"/><path class="cls-3" d="M58.82,27.89H89.28V58.34H58.82Z"/><path class="cls-4" d="M25.19,61.52H55.64V92H25.19Z"/><path class="cls-5" d="M58.82,61.52H89.28V92H58.82Z"/></svg>